<svg width="680" height="430" viewBox="0 0 680 430" fill="none" xmlns="http://www.w3.org/2000/svg">

  <!-- Background Gradient Shapes -->
  <defs>
    <linearGradient id="grad1" x1="0" y1="0" x2="1" y2="1">
      <stop offset="0%" stop-color="#EEF2FF"/>
      <stop offset="100%" stop-color="#E0EAFF"/>
    </linearGradient>
    <linearGradient id="grad2" x1="1" y1="0" x2="0" y2="1">
      <stop offset="0%" stop-color="#DDEBFF"/>
      <stop offset="100%" stop-color="#F3F8FF"/>
    </linearGradient>
  </defs>

  <circle cx="520" cy="110" r="140" fill="url(#grad1)" opacity="0.6"/>
  <circle cx="160" cy="360" r="150" fill="url(#grad2)" opacity="0.7"/>

  <!-- Browser Window -->
  <rect x="100" y="90" width="480" height="260" rx="18" fill="white" stroke="#CED3E0" stroke-width="2" />

  <!-- Top Bar -->
  <rect x="100" y="90" width="480" height="44" rx="18" fill="#F8FAFC" />
  <circle cx="130" cy="112" r="6" fill="#94A3B8"/>
  <circle cx="150" cy="112" r="6" fill="#94A3B8"/>
  <circle cx="170" cy="112" r="6" fill="#94A3B8"/>

  <!-- 3 Cards -->
  <rect x="150" y="160" width="120" height="90" rx="14" fill="#EEF2FF"/>
  <rect x="280" y="160" width="120" height="90" rx="14" fill="#ECEBFF"/>
  <rect x="410" y="160" width="120" height="90" rx="14" fill="#E4F4FF"/>

  <!-- Icons -->
  <text x="190" y="215" font-size="42">📱</text>
  <text x="320" y="215" font-size="42">🔗</text>
  <text x="450" y="215" font-size="42">📝</text>

  <!-- Text Bars -->
  <rect x="150" y="270" width="360" height="14" rx="7" fill="#E2E8F0"/>
  <rect x="150" y="295" width="260" height="14" rx="7" fill="#E2E8F0"/>

</svg>
